<svg width="20" height="21" viewBox="0 0 20 21" fill="none" xmlns="http://www.w3.org/2000/svg">
<path fill-rule="evenodd" clip-rule="evenodd" d="M9.67624 2.16663C5.25265 2.16663 1.66663 5.67345 1.66663 9.99934C1.66663 14.3252 5.25265 17.8321 9.67624 17.8321C11.5682 17.8321 13.3069 17.1906 14.6774 16.1179L17.2808 18.6572L17.3501 18.7155C17.5918 18.8904 17.9345 18.8705 18.1532 18.6561C18.3938 18.4202 18.3933 18.0382 18.1521 17.803L15.5793 15.2935C16.8874 13.8994 17.6859 12.0406 17.6859 9.99934C17.6859 5.67345 14.0998 2.16663 9.67624 2.16663ZM9.67624 3.37307C13.4185 3.37307 16.4522 6.33975 16.4522 9.99934C16.4522 13.6589 13.4185 16.6256 9.67624 16.6256C5.934 16.6256 2.90032 13.6589 2.90032 9.99934C2.90032 6.33975 5.934 3.37307 9.67624 3.37307Z" fill="url(#paint0_linear_163_367)"/>
<defs>
<linearGradient id="paint0_linear_163_367" x1="18.3333" y1="18.8333" x2="1.39515" y2="18.5527" gradientUnits="userSpaceOnUse">
<stop stop-color="#888BF4"/>
<stop offset="1" stop-color="#5151C6"/>
</linearGradient>
</defs>
</svg>
